<svg xmlns="http://www.w3.org/2000/svg" width="1400" height="725" viewBox="0 0 1400 725" role="img" aria-label="EEVEE 与 Redshift 的核心策略"><rect width="1400" height="725" fill="#F5F8FC"/><rect width="1400" height="10" fill="#2463A5"/><text x="56" y="75" font-size="32" font-weight="bold" fill="#142638" font-family="sans-serif">EEVEE 与 Redshift 的核心策略</text><text x="57" y="112" font-size="17" fill="#52677B" font-family="sans-serif">按画面生成的基础方法分类，不表示只能使用单一技术</text><rect x="54" y="148" width="628" height="493" rx="18" fill="#FFF" stroke="#D7E1EB" stroke-width="2"/><rect x="82" y="170" width="560" height="48" rx="9" fill="#E5F1FC"/><text x="102" y="201" font-size="23" font-weight="bold" fill="#2463A5" font-family="sans-serif">EEVEE</text><rect x="100" y="251" width="536" height="79" rx="10" fill="#F8FAFD" stroke="#D7E1EB"/><text x="118" y="298" font-size="22" fill="#142638" font-family="sans-serif">以光栅化处理主要可见几何体</text><rect x="100" y="363" width="536" height="79" rx="10" fill="#F0F5FB" stroke="#D7E1EB"/><text x="118" y="410" font-size="22" fill="#142638" font-family="sans-serif">结合 Shader、阴影、反射与 GI</text><rect x="716" y="148" width="628" height="493" rx="18" fill="#FFF" stroke="#D7E1EB" stroke-width="2"/><rect x="744" y="170" width="560" height="48" rx="9" fill="#E5F6F2"/><text x="764" y="201" font-size="23" font-weight="bold" fill="#117E77" font-family="sans-serif">Redshift</text><rect x="762" y="251" width="536" height="79" rx="10" fill="#F8FAFD" stroke="#D7E1EB"/><text x="780" y="298" font-size="22" fill="#142638" font-family="sans-serif">以光线／路径追踪为核心</text><rect x="762" y="363" width="536" height="79" rx="10" fill="#F0F5FB" stroke="#D7E1EB"/><text x="780" y="410" font-size="22" fill="#142638" font-family="sans-serif">采样光线路径并结合材质着色</text><line x1="56" x2="1344" y1="665" y2="665" stroke="#D7E1EB"/><text x="58" y="700" font-size="15" fill="#52677B" font-family="sans-serif">Conceptual illustration · simplified for learning · MIGUMIN-Lab</text></svg>